<?xml version="1.0" encoding="utf-8"?>
<!-- Generator: Adobe Illustrator 24.3.0, SVG Export Plug-In . SVG Version: 6.00 Build 0)  -->
<svg version="1.1" id="Layer_1" xmlns="http://www.w3.org/2000/svg" xmlns:xlink="http://www.w3.org/1999/xlink" x="0px" y="0px"
	 viewBox="0 0 50 50" style="enable-background:new 0 0 50 50;" xml:space="preserve">
<style type="text/css">
	.st0{fill:#1DB954;}
	.st1{fill:#FFFFFF;}
</style>
<g>
	<path class="st0" d="M25,0C11.2,0,0,11.2,0,25s11.2,25,25,25s25-11.2,25-25S38.8,0,25,0z M34.8,32.6c-0.1,0.4-0.5,0.7-0.9,0.6
c-4.4-1.3-9.4-1.8-14.9-1.5c-0.6,0-1.1-0.5-1.1-1.1c0-0.6,0.5-1.1,1.1-1.1c5.2-0.3,9.9,0.2,14,1.4c0.5,0.2,0.8,0.7,0.6,1.2
	L34.8,32.6z M35.2,27.2c-0.1,0.4-0.5,0.6-0.9,0.6c-5.1-1.5-11.5-2-17.3-1.1c-0.6,0.1-1.1-0.3-1.2-0.9c-0.1-0.6,0.3-1.1,0.9-1.2
c6-0.9,12.6-0.4,17.9,1.2c0.5,0.1,0.8,0.7,0.7,1.2L35.2,27.2z M35.5,21.9c-0.1,0.4-0.5,0.6-0.9,0.6c-5.7-1.7-13.2-2.2-18.8-1.2
c-0.6,0.1-1.1-0.3-1.2-0.9c-0.1-0.6,0.3-1.1,0.9-1.2c5.8-1,13.5-0.5,19.4,1.3c0.5,0.1,0.8,0.7,0.7,1.2L35.5,21.9z"/>
</g>
</svg>
